<svg width="1280" height="720" viewBox="0 0 1280 720" fill="none" xmlns="http://www.w3.org/2000/svg">
<rect width="1280" height="720" fill="white"/>
<circle cx="875.5" cy="381.5" r="37.5" fill="#D9D9D9"/>
<path d="M881.189 382.561C880.604 381.975 880.604 381.025 881.189 380.439L890.735 370.893C891.321 370.308 892.271 370.308 892.857 370.893C893.442 371.479 893.442 372.429 892.857 373.015L884.371 381.5L892.857 389.985C893.442 390.571 893.442 391.521 892.857 392.107C892.271 392.692 891.321 392.692 890.735 392.107L881.189 382.561ZM909.25 383H882.25V380H909.25V383Z" fill="black"/>
<path d="M870.561 381.811C871.146 381.225 871.146 380.275 870.561 379.689L861.015 370.143C860.429 369.558 859.479 369.558 858.893 370.143C858.308 370.729 858.308 371.679 858.893 372.265L867.379 380.75L858.893 389.235C858.308 389.821 858.308 390.771 858.893 391.357C859.479 391.942 860.429 391.942 861.015 391.357L870.561 381.811ZM842.5 382.25H869.5V379.25H842.5V382.25Z" fill="black"/>
<path d="M874.439 348.939C875.025 348.354 875.975 348.354 876.561 348.939L886.107 358.485C886.692 359.071 886.692 360.021 886.107 360.607C885.521 361.192 884.571 361.192 883.985 360.607L875.5 352.121L867.015 360.607C866.429 361.192 865.479 361.192 864.893 360.607C864.308 360.021 864.308 359.071 864.893 358.485L874.439 348.939ZM874 377V350H877V377H874Z" fill="black"/>
<path d="M874.439 412.561C875.025 413.146 875.975 413.146 876.561 412.561L886.107 403.015C886.692 402.429 886.692 401.479 886.107 400.893C885.521 400.308 884.571 400.308 883.985 400.893L875.5 409.379L867.015 400.893C866.429 400.308 865.479 400.308 864.893 400.893C864.308 401.479 864.308 402.429 864.893 403.015L874.439 412.561ZM874 384.5V411.5H877V384.5H874Z" fill="black"/>
<path d="M862.28 440V437.92H864.6V430.4H862.28V428.32H869.32V430.4H867V437.92H869.32V440H862.28ZM875.394 440.16C874.572 440.16 873.858 440.021 873.25 439.744C872.642 439.467 872.172 439.077 871.842 438.576C871.511 438.075 871.346 437.483 871.346 436.8H873.746C873.746 437.195 873.895 437.509 874.194 437.744C874.503 437.968 874.919 438.08 875.442 438.08C875.943 438.08 876.332 437.968 876.61 437.744C876.898 437.52 877.042 437.211 877.042 436.816C877.042 436.475 876.935 436.181 876.722 435.936C876.508 435.691 876.21 435.525 875.826 435.44L874.642 435.168C873.65 434.933 872.876 434.501 872.322 433.872C871.778 433.232 871.506 432.453 871.506 431.536C871.506 430.853 871.66 430.261 871.97 429.76C872.29 429.248 872.738 428.853 873.314 428.576C873.89 428.299 874.572 428.16 875.362 428.16C876.556 428.16 877.5 428.459 878.194 429.056C878.898 429.643 879.25 430.437 879.25 431.44H876.85C876.85 431.067 876.716 430.773 876.45 430.56C876.194 430.347 875.82 430.24 875.33 430.24C874.871 430.24 874.519 430.347 874.274 430.56C874.028 430.763 873.906 431.056 873.906 431.44C873.906 431.781 874.002 432.075 874.194 432.32C874.396 432.555 874.679 432.715 875.042 432.8L876.29 433.088C877.324 433.323 878.108 433.749 878.642 434.368C879.175 434.976 879.442 435.755 879.442 436.704C879.442 437.387 879.271 437.989 878.93 438.512C878.599 439.035 878.13 439.44 877.522 439.728C876.924 440.016 876.215 440.16 875.394 440.16ZM881.243 440V428.32H885.228C886.049 428.32 886.764 428.475 887.372 428.784C887.99 429.093 888.465 429.525 888.796 430.08C889.137 430.635 889.308 431.285 889.308 432.032C889.308 432.768 889.137 433.419 888.796 433.984C888.454 434.539 887.98 434.971 887.372 435.28C886.764 435.589 886.049 435.744 885.228 435.744H883.644V440H881.243ZM883.644 433.584H885.228C885.74 433.584 886.145 433.445 886.444 433.168C886.753 432.88 886.908 432.501 886.908 432.032C886.908 431.563 886.753 431.189 886.444 430.912C886.145 430.624 885.74 430.48 885.228 430.48H883.644V433.584Z" fill="black"/>
<path d="M997.4 419L1000.26 407.32H1003.3L1006.2 419H1003.75L1003.19 416.36H1000.41L999.848 419H997.4ZM1000.81 414.44H1002.78L1002.22 411.624C1002.14 411.219 1002.06 410.819 1001.98 410.424C1001.9 410.019 1001.84 409.704 1001.8 409.48C1001.76 409.704 1001.7 410.013 1001.62 410.408C1001.56 410.803 1001.49 411.203 1001.4 411.608L1000.81 414.44ZM1007.6 419V407.32H1011.39C1012.2 407.32 1012.91 407.475 1013.51 407.784C1014.11 408.093 1014.58 408.531 1014.91 409.096C1015.26 409.651 1015.43 410.307 1015.43 411.064V415.24C1015.43 415.987 1015.26 416.643 1014.91 417.208C1014.58 417.773 1014.11 418.216 1013.51 418.536C1012.91 418.845 1012.2 419 1011.39 419H1007.6ZM1010 416.76H1011.39C1011.88 416.76 1012.28 416.621 1012.58 416.344C1012.88 416.067 1013.03 415.699 1013.03 415.24V411.064C1013.03 410.616 1012.88 410.253 1012.58 409.976C1012.28 409.699 1011.88 409.56 1011.39 409.56H1010V416.76ZM1016.86 419V407.32H1019.56L1020.64 411C1020.75 411.384 1020.84 411.72 1020.89 412.008C1020.96 412.296 1020.99 412.499 1021 412.616C1021.01 412.499 1021.05 412.296 1021.1 412.008C1021.16 411.72 1021.25 411.384 1021.36 411L1022.41 407.32H1025.12V419H1022.92V415.8C1022.92 415.213 1022.93 414.6 1022.96 413.96C1022.99 413.309 1023.02 412.664 1023.07 412.024C1023.11 411.384 1023.16 410.787 1023.21 410.232C1023.26 409.667 1023.31 409.176 1023.36 408.76L1022.01 414.04H1019.98L1018.57 408.76C1018.62 409.155 1018.68 409.629 1018.73 410.184C1018.78 410.728 1018.83 411.32 1018.88 411.96C1018.93 412.589 1018.97 413.235 1019 413.896C1019.04 414.557 1019.05 415.192 1019.05 415.8V419H1016.86ZM1027.06 419V416.92H1029.38V409.4H1027.06V407.32H1034.1V409.4H1031.78V416.92H1034.1V419H1027.06ZM1036.34 419V407.32H1039.14L1042.16 416.36C1042.13 415.965 1042.09 415.512 1042.05 415C1042 414.477 1041.97 413.96 1041.94 413.448C1041.91 412.925 1041.9 412.483 1041.9 412.12V407.32H1044.02V419H1041.22L1038.22 409.96C1038.26 410.301 1038.29 410.707 1038.32 411.176C1038.35 411.645 1038.38 412.12 1038.4 412.6C1038.43 413.08 1038.45 413.507 1038.45 413.88V419H1036.34ZM1047.21 414.84V412.6H1052.33V414.84H1047.21ZM1055.62 419V407.32H1059.6C1060.42 407.32 1061.14 407.475 1061.75 407.784C1062.37 408.093 1062.84 408.525 1063.17 409.08C1063.51 409.635 1063.68 410.285 1063.68 411.032C1063.68 411.768 1063.51 412.419 1063.17 412.984C1062.83 413.539 1062.35 413.971 1061.75 414.28C1061.14 414.589 1060.42 414.744 1059.6 414.744H1058.02V419H1055.62ZM1058.02 412.584H1059.6C1060.11 412.584 1060.52 412.445 1060.82 412.168C1061.13 411.88 1061.28 411.501 1061.28 411.032C1061.28 410.563 1061.13 410.189 1060.82 409.912C1060.52 409.624 1060.11 409.48 1059.6 409.48H1058.02V412.584ZM1069.02 419.16C1068.24 419.16 1067.56 419.016 1066.97 418.728C1066.39 418.429 1065.93 418.019 1065.6 417.496C1065.28 416.963 1065.12 416.344 1065.12 415.64V410.68C1065.12 409.965 1065.28 409.347 1065.6 408.824C1065.93 408.301 1066.39 407.896 1066.97 407.608C1067.56 407.309 1068.24 407.16 1069.02 407.16C1069.81 407.16 1070.49 407.309 1071.07 407.608C1071.65 407.896 1072.11 408.301 1072.43 408.824C1072.76 409.347 1072.92 409.965 1072.92 410.68H1070.52C1070.52 410.211 1070.39 409.853 1070.12 409.608C1069.87 409.363 1069.5 409.24 1069.02 409.24C1068.54 409.24 1068.17 409.363 1067.9 409.608C1067.64 409.853 1067.52 410.211 1067.52 410.68V415.64C1067.52 416.099 1067.64 416.456 1067.9 416.712C1068.17 416.957 1068.54 417.08 1069.02 417.08C1069.5 417.08 1069.87 416.957 1070.12 416.712C1070.39 416.456 1070.52 416.099 1070.52 415.64H1072.92C1072.92 416.344 1072.76 416.963 1072.43 417.496C1072.11 418.019 1071.65 418.429 1071.07 418.728C1070.49 419.016 1069.81 419.16 1069.02 419.16Z" fill="black"/>
<path d="M647.12 440V428.32H654.64V430.56H649.488V433.152H654.224V435.392H649.52V440H647.12ZM656.842 440L655.754 428.32H657.722L658.314 436.128C658.324 436.277 658.335 436.491 658.346 436.768C658.356 437.035 658.367 437.317 658.378 437.616C658.399 437.904 658.41 438.165 658.41 438.4C658.431 438.165 658.452 437.904 658.474 437.616C658.506 437.317 658.538 437.035 658.57 436.768C658.602 436.491 658.623 436.277 658.634 436.128L659.498 428.32H661.322L662.154 436.128C662.175 436.277 662.196 436.491 662.218 436.768C662.25 437.035 662.282 437.317 662.314 437.616C662.356 437.904 662.388 438.165 662.41 438.4C662.42 438.165 662.431 437.904 662.442 437.616C662.452 437.317 662.463 437.035 662.474 436.768C662.484 436.491 662.495 436.277 662.506 436.128L663.05 428.32H665.034L663.866 440H661.37L660.586 432.24C660.564 432.059 660.543 431.824 660.522 431.536C660.5 431.237 660.479 430.928 660.458 430.608C660.436 430.288 660.415 430.005 660.394 429.76C660.383 430.005 660.367 430.288 660.346 430.608C660.324 430.928 660.303 431.237 660.282 431.536C660.26 431.824 660.239 432.059 660.218 432.24L659.354 440H656.842Z" fill="black"/>
<path d="M544.672 166V154.32H547.376L548.448 158C548.565 158.384 548.651 158.72 548.704 159.008C548.768 159.296 548.805 159.499 548.816 159.616C548.827 159.499 548.859 159.296 548.912 159.008C548.976 158.72 549.061 158.384 549.168 158L550.224 154.32H552.928V166H550.736V162.8C550.736 162.213 550.747 161.6 550.768 160.96C550.8 160.309 550.837 159.664 550.88 159.024C550.923 158.384 550.971 157.787 551.024 157.232C551.077 156.667 551.125 156.176 551.168 155.76L549.824 161.04H547.792L546.384 155.76C546.437 156.155 546.491 156.629 546.544 157.184C546.597 157.728 546.645 158.32 546.688 158.96C546.741 159.589 546.784 160.235 546.816 160.896C546.848 161.557 546.864 162.192 546.864 162.8V166H544.672ZM553.994 166L556.858 154.32H559.898L562.794 166H560.346L559.786 163.36H557.002L556.442 166H553.994ZM557.402 161.44H559.37L558.81 158.624C558.735 158.219 558.655 157.819 558.57 157.424C558.495 157.019 558.436 156.704 558.394 156.48C558.351 156.704 558.292 157.013 558.218 157.408C558.154 157.803 558.079 158.203 557.994 158.608L557.402 161.44ZM564.468 166V163.92H566.788V156.4H564.468V154.32H571.508V156.4H569.188V163.92H571.508V166H564.468ZM573.741 166V154.32H576.541L579.565 163.36C579.533 162.965 579.496 162.512 579.453 162C579.411 161.477 579.373 160.96 579.341 160.448C579.32 159.925 579.309 159.483 579.309 159.12V154.32H581.421V166H578.621L575.629 156.96C575.661 157.301 575.693 157.707 575.725 158.176C575.757 158.645 575.784 159.12 575.805 159.6C575.837 160.08 575.853 160.507 575.853 160.88V166H573.741ZM584.615 161.84V159.6H589.735V161.84H584.615ZM596.769 166.16C595.947 166.16 595.233 166.021 594.625 165.744C594.017 165.467 593.547 165.077 593.217 164.576C592.886 164.075 592.721 163.483 592.721 162.8H595.121C595.121 163.195 595.27 163.509 595.569 163.744C595.878 163.968 596.294 164.08 596.817 164.08C597.318 164.08 597.707 163.968 597.985 163.744C598.273 163.52 598.417 163.211 598.417 162.816C598.417 162.475 598.31 162.181 598.097 161.936C597.883 161.691 597.585 161.525 597.201 161.44L596.017 161.168C595.025 160.933 594.251 160.501 593.697 159.872C593.153 159.232 592.881 158.453 592.881 157.536C592.881 156.853 593.035 156.261 593.345 155.76C593.665 155.248 594.113 154.853 594.689 154.576C595.265 154.299 595.947 154.16 596.737 154.16C597.931 154.16 598.875 154.459 599.569 155.056C600.273 155.643 600.625 156.437 600.625 157.44H598.225C598.225 157.067 598.091 156.773 597.825 156.56C597.569 156.347 597.195 156.24 596.705 156.24C596.246 156.24 595.894 156.347 595.649 156.56C595.403 156.763 595.281 157.056 595.281 157.44C595.281 157.781 595.377 158.075 595.569 158.32C595.771 158.555 596.054 158.715 596.417 158.8L597.665 159.088C598.699 159.323 599.483 159.749 600.017 160.368C600.55 160.976 600.817 161.755 600.817 162.704C600.817 163.387 600.646 163.989 600.305 164.512C599.974 165.035 599.505 165.44 598.897 165.728C598.299 166.016 597.59 166.16 596.769 166.16ZM602.603 166V154.32H606.363C607.195 154.32 607.915 154.464 608.523 154.752C609.131 155.04 609.6 155.451 609.931 155.984C610.272 156.517 610.443 157.147 610.443 157.872C610.443 158.629 610.256 159.307 609.883 159.904C609.52 160.501 609.024 160.933 608.395 161.2L610.602 166H607.995L606.107 161.584H604.987V166H602.603ZM604.987 159.504H606.363C606.896 159.504 607.307 159.371 607.595 159.104C607.893 158.837 608.043 158.464 608.043 157.984C608.043 157.483 607.893 157.093 607.595 156.816C607.307 156.539 606.896 156.4 606.363 156.4H604.987V159.504ZM614.452 166L611.556 154.32H614.036L615.652 161.696C615.706 161.952 615.77 162.277 615.844 162.672C615.93 163.067 615.994 163.403 616.036 163.68C616.079 163.403 616.132 163.067 616.196 162.672C616.26 162.277 616.319 161.947 616.372 161.68L617.94 154.32H620.356L617.492 166H614.452Z" fill="black"/>
<path d="M274.4 345L277.264 333.32H280.304L283.2 345H280.752L280.192 342.36H277.408L276.848 345H274.4ZM277.808 340.44H279.776L279.216 337.624C279.141 337.219 279.061 336.819 278.976 336.424C278.901 336.019 278.843 335.704 278.8 335.48C278.757 335.704 278.699 336.013 278.624 336.408C278.56 336.803 278.485 337.203 278.4 337.608L277.808 340.44ZM288.394 345.16C287.572 345.16 286.858 345.021 286.25 344.744C285.642 344.467 285.172 344.077 284.842 343.576C284.511 343.075 284.346 342.483 284.346 341.8H286.746C286.746 342.195 286.895 342.509 287.194 342.744C287.503 342.968 287.919 343.08 288.442 343.08C288.943 343.08 289.332 342.968 289.61 342.744C289.898 342.52 290.042 342.211 290.042 341.816C290.042 341.475 289.935 341.181 289.722 340.936C289.508 340.691 289.21 340.525 288.826 340.44L287.642 340.168C286.65 339.933 285.876 339.501 285.322 338.872C284.778 338.232 284.506 337.453 284.506 336.536C284.506 335.853 284.66 335.261 284.97 334.76C285.29 334.248 285.738 333.853 286.314 333.576C286.89 333.299 287.572 333.16 288.362 333.16C289.556 333.16 290.5 333.459 291.194 334.056C291.898 334.643 292.25 335.437 292.25 336.44H289.85C289.85 336.067 289.716 335.773 289.45 335.56C289.194 335.347 288.82 335.24 288.33 335.24C287.871 335.24 287.519 335.347 287.274 335.56C287.028 335.763 286.906 336.056 286.906 336.44C286.906 336.781 287.002 337.075 287.194 337.32C287.396 337.555 287.679 337.715 288.042 337.8L289.29 338.088C290.324 338.323 291.108 338.749 291.642 339.368C292.175 339.976 292.442 340.755 292.442 341.704C292.442 342.387 292.271 342.989 291.93 343.512C291.599 344.035 291.13 344.44 290.522 344.728C289.924 345.016 289.215 345.16 288.394 345.16ZM296.788 345V335.56H293.828V333.32H302.148V335.56H299.188V345H296.788ZM303.821 345V333.32H307.581C308.413 333.32 309.133 333.464 309.741 333.752C310.349 334.04 310.819 334.451 311.149 334.984C311.491 335.517 311.661 336.147 311.661 336.872C311.661 337.629 311.475 338.307 311.101 338.904C310.739 339.501 310.243 339.933 309.613 340.2L311.821 345H309.213L307.325 340.584H306.205V345H303.821ZM306.205 338.504H307.581C308.115 338.504 308.525 338.371 308.813 338.104C309.112 337.837 309.261 337.464 309.261 336.984C309.261 336.483 309.112 336.093 308.813 335.816C308.525 335.539 308.115 335.4 307.581 335.4H306.205V338.504ZM312.775 345L315.639 333.32H318.679L321.575 345H319.127L318.567 342.36H315.783L315.223 345H312.775ZM316.183 340.44H318.151L317.591 337.624C317.516 337.219 317.436 336.819 317.351 336.424C317.276 336.019 317.218 335.704 317.175 335.48C317.132 335.704 317.074 336.013 316.999 336.408C316.935 336.803 316.86 337.203 316.775 337.608L316.183 340.44ZM324.209 340.84V338.6H329.329V340.84H324.209ZM332.618 345V333.32H336.603C337.424 333.32 338.139 333.475 338.747 333.784C339.365 334.093 339.84 334.525 340.171 335.08C340.512 335.635 340.683 336.285 340.683 337.032C340.683 337.768 340.512 338.419 340.171 338.984C339.829 339.539 339.355 339.971 338.747 340.28C338.139 340.589 337.424 340.744 336.603 340.744H335.019V345H332.618ZM335.019 338.584H336.603C337.115 338.584 337.52 338.445 337.819 338.168C338.128 337.88 338.283 337.501 338.283 337.032C338.283 336.563 338.128 336.189 337.819 335.912C337.52 335.624 337.115 335.48 336.603 335.48H335.019V338.584ZM346.02 345.16C345.242 345.16 344.559 345.016 343.972 344.728C343.386 344.429 342.927 344.019 342.596 343.496C342.276 342.963 342.116 342.344 342.116 341.64V336.68C342.116 335.965 342.276 335.347 342.596 334.824C342.927 334.301 343.386 333.896 343.972 333.608C344.559 333.309 345.242 333.16 346.02 333.16C346.81 333.16 347.492 333.309 348.068 333.608C348.655 333.896 349.108 334.301 349.428 334.824C349.759 335.347 349.924 335.965 349.924 336.68H347.524C347.524 336.211 347.391 335.853 347.124 335.608C346.868 335.363 346.5 335.24 346.02 335.24C345.54 335.24 345.167 335.363 344.9 335.608C344.644 335.853 344.516 336.211 344.516 336.68V341.64C344.516 342.099 344.644 342.456 344.9 342.712C345.167 342.957 345.54 343.08 346.02 343.08C346.5 343.08 346.868 342.957 347.124 342.712C347.391 342.456 347.524 342.099 347.524 341.64H349.924C349.924 342.344 349.759 342.963 349.428 343.496C349.108 344.019 348.655 344.429 348.068 344.728C347.492 345.016 346.81 345.16 346.02 345.16Z" fill="black"/>
<path d="M265.248 518L264.16 506.32H266.128L266.72 514.128C266.731 514.277 266.741 514.491 266.752 514.768C266.763 515.035 266.773 515.317 266.784 515.616C266.805 515.904 266.816 516.165 266.816 516.4C266.837 516.165 266.859 515.904 266.88 515.616C266.912 515.317 266.944 515.035 266.976 514.768C267.008 514.491 267.029 514.277 267.04 514.128L267.904 506.32H269.728L270.56 514.128C270.581 514.277 270.603 514.491 270.624 514.768C270.656 515.035 270.688 515.317 270.72 515.616C270.763 515.904 270.795 516.165 270.816 516.4C270.827 516.165 270.837 515.904 270.848 515.616C270.859 515.317 270.869 515.035 270.88 514.768C270.891 514.491 270.901 514.277 270.912 514.128L271.456 506.32H273.44L272.272 518H269.776L268.992 510.24C268.971 510.059 268.949 509.824 268.928 509.536C268.907 509.237 268.885 508.928 268.864 508.608C268.843 508.288 268.821 508.005 268.8 507.76C268.789 508.005 268.773 508.288 268.752 508.608C268.731 508.928 268.709 509.237 268.688 509.536C268.667 509.824 268.645 510.059 268.624 510.24L267.76 518H265.248ZM274.874 518V515.92H277.194V508.4H274.874V506.32H281.914V508.4H279.594V515.92H281.914V518H274.874ZM284.148 518V506.32H286.948L289.972 515.36C289.94 514.965 289.902 514.512 289.86 514C289.817 513.477 289.78 512.96 289.748 512.448C289.726 511.925 289.716 511.483 289.716 511.12V506.32H291.828V518H289.028L286.036 508.96C286.068 509.301 286.1 509.707 286.132 510.176C286.164 510.645 286.19 511.12 286.212 511.6C286.244 512.08 286.26 512.507 286.26 512.88V518H284.148ZM293.789 518V506.32H297.581C298.392 506.32 299.096 506.475 299.693 506.784C300.301 507.093 300.771 507.531 301.101 508.096C301.443 508.651 301.613 509.307 301.613 510.064V514.24C301.613 514.987 301.443 515.643 301.101 516.208C300.771 516.773 300.301 517.216 299.693 517.536C299.096 517.845 298.392 518 297.581 518H293.789ZM296.189 515.76H297.581C298.072 515.76 298.467 515.621 298.765 515.344C299.064 515.067 299.213 514.699 299.213 514.24V510.064C299.213 509.616 299.064 509.253 298.765 508.976C298.467 508.699 298.072 508.56 297.581 508.56H296.189V515.76ZM307.175 518.16C306.396 518.16 305.719 518.016 305.143 517.728C304.567 517.429 304.119 517.019 303.799 516.496C303.49 515.963 303.335 515.344 303.335 514.64V509.68C303.335 508.976 303.49 508.363 303.799 507.84C304.119 507.307 304.567 506.896 305.143 506.608C305.719 506.309 306.396 506.16 307.175 506.16C307.964 506.16 308.642 506.309 309.207 506.608C309.783 506.896 310.226 507.307 310.535 507.84C310.855 508.363 311.015 508.976 311.015 509.68V514.64C311.015 515.344 310.855 515.963 310.535 516.496C310.226 517.019 309.783 517.429 309.207 517.728C308.642 518.016 307.964 518.16 307.175 518.16ZM307.175 516.08C307.655 516.08 308.012 515.957 308.247 515.712C308.492 515.456 308.615 515.099 308.615 514.64V509.68C308.615 509.211 308.498 508.853 308.263 508.608C308.028 508.363 307.666 508.24 307.175 508.24C306.684 508.24 306.322 508.363 306.087 508.608C305.852 508.853 305.735 509.211 305.735 509.68V514.64C305.735 515.099 305.852 515.456 306.087 515.712C306.332 515.957 306.695 516.08 307.175 516.08ZM313.217 518L312.129 506.32H314.097L314.689 514.128C314.699 514.277 314.71 514.491 314.721 514.768C314.731 515.035 314.742 515.317 314.753 515.616C314.774 515.904 314.785 516.165 314.785 516.4C314.806 516.165 314.827 515.904 314.849 515.616C314.881 515.317 314.913 515.035 314.945 514.768C314.977 514.491 314.998 514.277 315.009 514.128L315.873 506.32H317.697L318.529 514.128C318.55 514.277 318.571 514.491 318.593 514.768C318.625 515.035 318.657 515.317 318.689 515.616C318.731 515.904 318.763 516.165 318.785 516.4C318.795 516.165 318.806 515.904 318.817 515.616C318.827 515.317 318.838 515.035 318.849 514.768C318.859 514.491 318.87 514.277 318.881 514.128L319.425 506.32H321.409L320.241 518H317.745L316.961 510.24C316.939 510.059 316.918 509.824 316.897 509.536C316.875 509.237 316.854 508.928 316.833 508.608C316.811 508.288 316.79 508.005 316.769 507.76C316.758 508.005 316.742 508.288 316.721 508.608C316.699 508.928 316.678 509.237 316.657 509.536C316.635 509.824 316.614 510.059 316.593 510.24L315.729 518H313.217ZM326.363 518.16C325.541 518.16 324.827 518.021 324.219 517.744C323.611 517.467 323.141 517.077 322.811 516.576C322.48 516.075 322.315 515.483 322.315 514.8H324.715C324.715 515.195 324.864 515.509 325.163 515.744C325.472 515.968 325.888 516.08 326.411 516.08C326.912 516.08 327.301 515.968 327.579 515.744C327.867 515.52 328.011 515.211 328.011 514.816C328.011 514.475 327.904 514.181 327.691 513.936C327.477 513.691 327.179 513.525 326.795 513.44L325.611 513.168C324.619 512.933 323.845 512.501 323.291 511.872C322.747 511.232 322.475 510.453 322.475 509.536C322.475 508.853 322.629 508.261 322.939 507.76C323.259 507.248 323.707 506.853 324.283 506.576C324.859 506.299 325.541 506.16 326.331 506.16C327.525 506.16 328.469 506.459 329.163 507.056C329.867 507.643 330.219 508.437 330.219 509.44H327.819C327.819 509.067 327.685 508.773 327.419 508.56C327.163 508.347 326.789 508.24 326.299 508.24C325.84 508.24 325.488 508.347 325.243 508.56C324.997 508.763 324.875 509.056 324.875 509.44C324.875 509.781 324.971 510.075 325.163 510.32C325.365 510.555 325.648 510.715 326.011 510.8L327.259 511.088C328.293 511.323 329.077 511.749 329.611 512.368C330.144 512.976 330.411 513.755 330.411 514.704C330.411 515.387 330.24 515.989 329.899 516.512C329.568 517.035 329.099 517.44 328.491 517.728C327.893 518.016 327.184 518.16 326.363 518.16ZM333.396 513.84V511.6H338.516V513.84H333.396ZM341.806 518V506.32H345.79C346.611 506.32 347.326 506.475 347.934 506.784C348.553 507.093 349.027 507.525 349.358 508.08C349.699 508.635 349.87 509.285 349.87 510.032C349.87 510.768 349.699 511.419 349.358 511.984C349.017 512.539 348.542 512.971 347.934 513.28C347.326 513.589 346.611 513.744 345.79 513.744H344.206V518H341.806ZM344.206 511.584H345.79C346.302 511.584 346.707 511.445 347.006 511.168C347.315 510.88 347.47 510.501 347.47 510.032C347.47 509.563 347.315 509.189 347.006 508.912C346.707 508.624 346.302 508.48 345.79 508.48H344.206V511.584ZM355.208 518.16C354.429 518.16 353.746 518.016 353.16 517.728C352.573 517.429 352.114 517.019 351.784 516.496C351.464 515.963 351.304 515.344 351.304 514.64V509.68C351.304 508.965 351.464 508.347 351.784 507.824C352.114 507.301 352.573 506.896 353.16 506.608C353.746 506.309 354.429 506.16 355.208 506.16C355.997 506.16 356.68 506.309 357.256 506.608C357.842 506.896 358.296 507.301 358.616 507.824C358.946 508.347 359.112 508.965 359.112 509.68H356.712C356.712 509.211 356.578 508.853 356.312 508.608C356.056 508.363 355.688 508.24 355.208 508.24C354.728 508.24 354.354 508.363 354.088 508.608C353.832 508.853 353.704 509.211 353.704 509.68V514.64C353.704 515.099 353.832 515.456 354.088 515.712C354.354 515.957 354.728 516.08 355.208 516.08C355.688 516.08 356.056 515.957 356.312 515.712C356.578 515.456 356.712 515.099 356.712 514.64H359.112C359.112 515.344 358.946 515.963 358.616 516.496C358.296 517.019 357.842 517.429 357.256 517.728C356.68 518.016 355.997 518.16 355.208 518.16Z" fill="black"/>
<path d="M862.28 614V611.92H864.6V604.4H862.28V602.32H869.32V604.4H867V611.92H869.32V614H862.28ZM871.554 614V602.32H874.354L877.378 611.36C877.346 610.965 877.308 610.512 877.266 610C877.223 609.477 877.186 608.96 877.154 608.448C877.132 607.925 877.122 607.483 877.122 607.12V602.32H879.234V614H876.434L873.442 604.96C873.474 605.301 873.506 605.707 873.538 606.176C873.57 606.645 873.596 607.12 873.618 607.6C873.65 608.08 873.666 608.507 873.666 608.88V614H871.554ZM881.468 614V602.32H888.668V604.368H883.82V606.992H888.108V609.04H883.82V611.952H888.668V614H881.468ZM893.381 614V604.56H890.421V602.32H898.741V604.56H895.781V614H893.381Z" fill="black"/>
<path d="M1003.52 614V602.32H1005.92V611.76H1010.64V614H1003.52ZM1012.87 614V611.92H1015.19V604.4H1012.87V602.32H1019.91V604.4H1017.59V611.92H1019.91V614H1012.87ZM1024.79 614V604.56H1021.83V602.32H1030.15V604.56H1027.19V614H1024.79ZM1031.74 616.64V614.4H1039.42V616.64H1031.74ZM1041.43 614V602.32H1045.42C1046.24 602.32 1046.95 602.475 1047.56 602.784C1048.18 603.093 1048.65 603.525 1048.98 604.08C1049.32 604.635 1049.5 605.285 1049.5 606.032C1049.5 606.768 1049.32 607.419 1048.98 607.984C1048.64 608.539 1048.17 608.971 1047.56 609.28C1046.95 609.589 1046.24 609.744 1045.42 609.744H1043.83V614H1041.43ZM1043.83 607.584H1045.42C1045.93 607.584 1046.33 607.445 1046.63 607.168C1046.94 606.88 1047.1 606.501 1047.1 606.032C1047.1 605.563 1046.94 605.189 1046.63 604.912C1046.33 604.624 1045.93 604.48 1045.42 604.48H1043.83V607.584ZM1054.83 614.16C1054.05 614.16 1053.37 614.016 1052.78 613.728C1052.2 613.429 1051.74 613.019 1051.41 612.496C1051.09 611.963 1050.93 611.344 1050.93 610.64V605.68C1050.93 604.965 1051.09 604.347 1051.41 603.824C1051.74 603.301 1052.2 602.896 1052.78 602.608C1053.37 602.309 1054.05 602.16 1054.83 602.16C1055.62 602.16 1056.3 602.309 1056.88 602.608C1057.47 602.896 1057.92 603.301 1058.24 603.824C1058.57 604.347 1058.74 604.965 1058.74 605.68H1056.34C1056.34 605.211 1056.2 604.853 1055.94 604.608C1055.68 604.363 1055.31 604.24 1054.83 604.24C1054.35 604.24 1053.98 604.363 1053.71 604.608C1053.46 604.853 1053.33 605.211 1053.33 605.68V610.64C1053.33 611.099 1053.46 611.456 1053.71 611.712C1053.98 611.957 1054.35 612.08 1054.83 612.08C1055.31 612.08 1055.68 611.957 1055.94 611.712C1056.2 611.456 1056.34 611.099 1056.34 610.64H1058.74C1058.74 611.344 1058.57 611.963 1058.24 612.496C1057.92 613.019 1057.47 613.429 1056.88 613.728C1056.3 614.016 1055.62 614.16 1054.83 614.16Z" fill="black"/>
<circle cx="656.5" cy="381.5" r="37.5" fill="#D9D9D9"/>
<path d="M662.189 382.561C661.604 381.975 661.604 381.025 662.189 380.439L671.735 370.893C672.321 370.308 673.271 370.308 673.857 370.893C674.442 371.479 674.442 372.429 673.857 373.015L665.371 381.5L673.857 389.985C674.442 390.571 674.442 391.521 673.857 392.107C673.271 392.692 672.321 392.692 671.735 392.107L662.189 382.561ZM690.25 383H663.25V380H690.25V383Z" fill="black"/>
<path d="M651.561 381.811C652.146 381.225 652.146 380.275 651.561 379.689L642.015 370.143C641.429 369.558 640.479 369.558 639.893 370.143C639.308 370.729 639.308 371.679 639.893 372.265L648.379 380.75L639.893 389.235C639.308 389.821 639.308 390.771 639.893 391.357C640.479 391.942 641.429 391.942 642.015 391.357L651.561 381.811ZM623.5 382.25H650.5V379.25H623.5V382.25Z" fill="black"/>
<path d="M655.439 348.939C656.025 348.354 656.975 348.354 657.561 348.939L667.107 358.485C667.692 359.071 667.692 360.021 667.107 360.607C666.521 361.192 665.571 361.192 664.985 360.607L656.5 352.121L648.015 360.607C647.429 361.192 646.479 361.192 645.893 360.607C645.308 360.021 645.308 359.071 645.893 358.485L655.439 348.939ZM655 377V350H658V377H655Z" fill="black"/>
<path d="M655.439 412.561C656.025 413.146 656.975 413.146 657.561 412.561L667.107 403.015C667.692 402.429 667.692 401.479 667.107 400.893C666.521 400.308 665.571 400.308 664.985 400.893L656.5 409.379L648.015 400.893C647.429 400.308 646.479 400.308 645.893 400.893C645.308 401.479 645.308 402.429 645.893 403.015L655.439 412.561ZM655 384.5V411.5H658V384.5H655Z" fill="black"/>
<line x1="706.5" y1="379.5" x2="827.5" y2="379.5" stroke="black" stroke-width="5" stroke-linecap="round"/>
<path d="M846.042 561.078C840.697 559.956 830.007 562.592 830.007 582.111C829.793 586.149 834.419 587.72 836.759 588H924.53C927.061 588 932.294 584.466 932.969 570.332C933.644 556.198 923.123 550.982 917.778 550.141C914.402 541.391 901.743 540.325 895.835 540.886C894.485 532.81 877.268 532.473 868.829 533.314C866.297 533.314 859.545 533.314 851.106 540.886C846.345 545.158 845.198 555.189 846.042 561.078Z" fill="#D9D9D9" stroke="black" stroke-width="2"/>
<line x1="872.5" y1="445.5" x2="872.5" y2="515.5" stroke="black" stroke-width="5" stroke-linecap="round"/>
<rect x="1003.5" y="548.5" width="53" height="38" rx="6.5" fill="#D9D9D9" stroke="black" stroke-width="3"/>
<rect x="1001.5" y="587.5" width="57" height="6" rx="2.5" fill="#D9D9D9" stroke="black"/>
<line x1="942.5" y1="567.5" x2="988.5" y2="567.5" stroke="black" stroke-width="5" stroke-linecap="round"/>
<path d="M558 73H597C601.971 73 606 77.0294 606 82V146H558V73Z" fill="#D9D9D9" stroke="black" stroke-width="2"/>
<circle cx="598.5" cy="81.5" r="2.5" fill="black"/>
<circle cx="588.5" cy="81.5" r="2.5" fill="black"/>
<circle cx="578.5" cy="81.5" r="2.5" fill="black"/>
<line x1="658" y1="274.496" x2="658" y2="333.504" stroke="black" stroke-width="5" stroke-linecap="round"/>
<path d="M713 73H752C756.971 73 761 77.0294 761 82V146H713V73Z" fill="#D9D9D9" stroke="black" stroke-width="2"/>
<circle cx="753.5" cy="81.5" r="2.5" fill="black"/>
<circle cx="743.5" cy="81.5" r="2.5" fill="black"/>
<circle cx="733.5" cy="81.5" r="2.5" fill="black"/>
<path d="M689.248 166L688.16 154.32H690.128L690.72 162.128C690.731 162.277 690.741 162.491 690.752 162.768C690.763 163.035 690.773 163.317 690.784 163.616C690.805 163.904 690.816 164.165 690.816 164.4C690.837 164.165 690.859 163.904 690.88 163.616C690.912 163.317 690.944 163.035 690.976 162.768C691.008 162.491 691.029 162.277 691.04 162.128L691.904 154.32H693.728L694.56 162.128C694.581 162.277 694.603 162.491 694.624 162.768C694.656 163.035 694.688 163.317 694.72 163.616C694.763 163.904 694.795 164.165 694.816 164.4C694.827 164.165 694.837 163.904 694.848 163.616C694.859 163.317 694.869 163.035 694.88 162.768C694.891 162.491 694.901 162.277 694.912 162.128L695.456 154.32H697.44L696.272 166H693.776L692.992 158.24C692.971 158.059 692.949 157.824 692.928 157.536C692.907 157.237 692.885 156.928 692.864 156.608C692.843 156.288 692.821 156.005 692.8 155.76C692.789 156.005 692.773 156.288 692.752 156.608C692.731 156.928 692.709 157.237 692.688 157.536C692.667 157.824 692.645 158.059 692.624 158.24L691.76 166H689.248ZM698.874 166V163.92H701.194V156.4H698.874V154.32H705.914V156.4H703.594V163.92H705.914V166H698.874ZM708.148 166V154.32H710.948L713.972 163.36C713.94 162.965 713.902 162.512 713.86 162C713.817 161.477 713.78 160.96 713.748 160.448C713.726 159.925 713.716 159.483 713.716 159.12V154.32H715.828V166H713.028L710.036 156.96C710.068 157.301 710.1 157.707 710.132 158.176C710.164 158.645 710.19 159.12 710.212 159.6C710.244 160.08 710.26 160.507 710.26 160.88V166H708.148ZM717.789 166V154.32H721.581C722.392 154.32 723.096 154.475 723.693 154.784C724.301 155.093 724.771 155.531 725.101 156.096C725.443 156.651 725.613 157.307 725.613 158.064V162.24C725.613 162.987 725.443 163.643 725.101 164.208C724.771 164.773 724.301 165.216 723.693 165.536C723.096 165.845 722.392 166 721.581 166H717.789ZM720.189 163.76H721.581C722.072 163.76 722.467 163.621 722.765 163.344C723.064 163.067 723.213 162.699 723.213 162.24V158.064C723.213 157.616 723.064 157.253 722.765 156.976C722.467 156.699 722.072 156.56 721.581 156.56H720.189V163.76ZM731.175 166.16C730.396 166.16 729.719 166.016 729.143 165.728C728.567 165.429 728.119 165.019 727.799 164.496C727.49 163.963 727.335 163.344 727.335 162.64V157.68C727.335 156.976 727.49 156.363 727.799 155.84C728.119 155.307 728.567 154.896 729.143 154.608C729.719 154.309 730.396 154.16 731.175 154.16C731.964 154.16 732.642 154.309 733.207 154.608C733.783 154.896 734.226 155.307 734.535 155.84C734.855 156.363 735.015 156.976 735.015 157.68V162.64C735.015 163.344 734.855 163.963 734.535 164.496C734.226 165.019 733.783 165.429 733.207 165.728C732.642 166.016 731.964 166.16 731.175 166.16ZM731.175 164.08C731.655 164.08 732.012 163.957 732.247 163.712C732.492 163.456 732.615 163.099 732.615 162.64V157.68C732.615 157.211 732.498 156.853 732.263 156.608C732.028 156.363 731.666 156.24 731.175 156.24C730.684 156.24 730.322 156.363 730.087 156.608C729.852 156.853 729.735 157.211 729.735 157.68V162.64C729.735 163.099 729.852 163.456 730.087 163.712C730.332 163.957 730.695 164.08 731.175 164.08ZM737.217 166L736.129 154.32H738.097L738.689 162.128C738.699 162.277 738.71 162.491 738.721 162.768C738.731 163.035 738.742 163.317 738.753 163.616C738.774 163.904 738.785 164.165 738.785 164.4C738.806 164.165 738.827 163.904 738.849 163.616C738.881 163.317 738.913 163.035 738.945 162.768C738.977 162.491 738.998 162.277 739.009 162.128L739.873 154.32H741.697L742.529 162.128C742.55 162.277 742.571 162.491 742.593 162.768C742.625 163.035 742.657 163.317 742.689 163.616C742.731 163.904 742.763 164.165 742.785 164.4C742.795 164.165 742.806 163.904 742.817 163.616C742.827 163.317 742.838 163.035 742.849 162.768C742.859 162.491 742.87 162.277 742.881 162.128L743.425 154.32H745.409L744.241 166H741.745L740.961 158.24C740.939 158.059 740.918 157.824 740.897 157.536C740.875 157.237 740.854 156.928 740.833 156.608C740.811 156.288 740.79 156.005 740.769 155.76C740.758 156.005 740.742 156.288 740.721 156.608C740.699 156.928 740.678 157.237 740.657 157.536C740.635 157.824 740.614 158.059 740.593 158.24L739.729 166H737.217ZM750.363 166.16C749.541 166.16 748.827 166.021 748.219 165.744C747.611 165.467 747.141 165.077 746.811 164.576C746.48 164.075 746.315 163.483 746.315 162.8H748.715C748.715 163.195 748.864 163.509 749.163 163.744C749.472 163.968 749.888 164.08 750.411 164.08C750.912 164.08 751.301 163.968 751.579 163.744C751.867 163.52 752.011 163.211 752.011 162.816C752.011 162.475 751.904 162.181 751.691 161.936C751.477 161.691 751.179 161.525 750.795 161.44L749.611 161.168C748.619 160.933 747.845 160.501 747.291 159.872C746.747 159.232 746.475 158.453 746.475 157.536C746.475 156.853 746.629 156.261 746.939 155.76C747.259 155.248 747.707 154.853 748.283 154.576C748.859 154.299 749.541 154.16 750.331 154.16C751.525 154.16 752.469 154.459 753.163 155.056C753.867 155.643 754.219 156.437 754.219 157.44H751.819C751.819 157.067 751.685 156.773 751.419 156.56C751.163 156.347 750.789 156.24 750.299 156.24C749.84 156.24 749.488 156.347 749.243 156.56C748.997 156.763 748.875 157.056 748.875 157.44C748.875 157.781 748.971 158.075 749.163 158.32C749.365 158.555 749.648 158.715 750.011 158.8L751.259 159.088C752.293 159.323 753.077 159.749 753.611 160.368C754.144 160.976 754.411 161.755 754.411 162.704C754.411 163.387 754.24 163.989 753.899 164.512C753.568 165.035 753.099 165.44 752.491 165.728C751.893 166.016 751.184 166.16 750.363 166.16ZM757.396 161.84V159.6H762.516V161.84H757.396ZM769.55 166.16C768.729 166.16 768.014 166.021 767.406 165.744C766.798 165.467 766.329 165.077 765.998 164.576C765.667 164.075 765.502 163.483 765.502 162.8H767.902C767.902 163.195 768.051 163.509 768.35 163.744C768.659 163.968 769.075 164.08 769.598 164.08C770.099 164.08 770.489 163.968 770.766 163.744C771.054 163.52 771.198 163.211 771.198 162.816C771.198 162.475 771.091 162.181 770.878 161.936C770.665 161.691 770.366 161.525 769.982 161.44L768.798 161.168C767.806 160.933 767.033 160.501 766.478 159.872C765.934 159.232 765.662 158.453 765.662 157.536C765.662 156.853 765.817 156.261 766.126 155.76C766.446 155.248 766.894 154.853 767.47 154.576C768.046 154.299 768.729 154.16 769.518 154.16C770.713 154.16 771.657 154.459 772.35 155.056C773.054 155.643 773.406 156.437 773.406 157.44H771.006C771.006 157.067 770.873 156.773 770.606 156.56C770.35 156.347 769.977 156.24 769.486 156.24C769.027 156.24 768.675 156.347 768.43 156.56C768.185 156.763 768.062 157.056 768.062 157.44C768.062 157.781 768.158 158.075 768.35 158.32C768.553 158.555 768.835 158.715 769.198 158.8L770.446 159.088C771.481 159.323 772.265 159.749 772.798 160.368C773.331 160.976 773.598 161.755 773.598 162.704C773.598 163.387 773.427 163.989 773.086 164.512C772.755 165.035 772.286 165.44 771.678 165.728C771.081 166.016 770.371 166.16 769.55 166.16ZM775.384 166V154.32H779.144C779.976 154.32 780.696 154.464 781.304 154.752C781.912 155.04 782.381 155.451 782.712 155.984C783.053 156.517 783.224 157.147 783.224 157.872C783.224 158.629 783.037 159.307 782.664 159.904C782.301 160.501 781.805 160.933 781.176 161.2L783.384 166H780.776L778.888 161.584H777.768V166H775.384ZM777.768 159.504H779.144C779.677 159.504 780.088 159.371 780.376 159.104C780.674 158.837 780.824 158.464 780.824 157.984C780.824 157.483 780.674 157.093 780.376 156.816C780.088 156.539 779.677 156.4 779.144 156.4H777.768V159.504ZM787.234 166L784.338 154.32H786.818L788.434 161.696C788.487 161.952 788.551 162.277 788.626 162.672C788.711 163.067 788.775 163.403 788.818 163.68C788.86 163.403 788.914 163.067 788.978 162.672C789.042 162.277 789.1 161.947 789.154 161.68L790.722 154.32H793.138L790.274 166H787.234Z" fill="black"/>
<path d="M864.296 267L861.4 255.32H863.88L865.496 262.696C865.549 262.952 865.613 263.277 865.688 263.672C865.773 264.067 865.837 264.403 865.88 264.68C865.923 264.403 865.976 264.067 866.04 263.672C866.104 263.277 866.163 262.947 866.216 262.68L867.784 255.32H870.2L867.336 267H864.296ZM871.602 267V255.32H875.394C876.204 255.32 876.908 255.475 877.506 255.784C878.114 256.093 878.583 256.531 878.914 257.096C879.255 257.651 879.426 258.307 879.426 259.064V263.24C879.426 263.987 879.255 264.643 878.914 265.208C878.583 265.773 878.114 266.216 877.506 266.536C876.908 266.845 876.204 267 875.394 267H871.602ZM874.002 264.76H875.394C875.884 264.76 876.279 264.621 876.578 264.344C876.876 264.067 877.026 263.699 877.026 263.24V259.064C877.026 258.616 876.876 258.253 876.578 257.976C876.279 257.699 875.884 257.56 875.394 257.56H874.002V264.76ZM884.988 267.16C884.166 267.16 883.452 267.021 882.844 266.744C882.236 266.467 881.766 266.077 881.436 265.576C881.105 265.075 880.94 264.483 880.94 263.8H883.34C883.34 264.195 883.489 264.509 883.788 264.744C884.097 264.968 884.513 265.08 885.036 265.08C885.537 265.08 885.926 264.968 886.204 264.744C886.492 264.52 886.636 264.211 886.636 263.816C886.636 263.475 886.529 263.181 886.316 262.936C886.102 262.691 885.804 262.525 885.42 262.44L884.236 262.168C883.244 261.933 882.47 261.501 881.916 260.872C881.372 260.232 881.1 259.453 881.1 258.536C881.1 257.853 881.254 257.261 881.564 256.76C881.884 256.248 882.332 255.853 882.908 255.576C883.484 255.299 884.166 255.16 884.956 255.16C886.15 255.16 887.094 255.459 887.788 256.056C888.492 256.643 888.844 257.437 888.844 258.44H886.444C886.444 258.067 886.31 257.773 886.044 257.56C885.788 257.347 885.414 257.24 884.924 257.24C884.465 257.24 884.113 257.347 883.868 257.56C883.622 257.763 883.5 258.056 883.5 258.44C883.5 258.781 883.596 259.075 883.788 259.32C883.99 259.555 884.273 259.715 884.636 259.8L885.884 260.088C886.918 260.323 887.702 260.749 888.236 261.368C888.769 261.976 889.036 262.755 889.036 263.704C889.036 264.387 888.865 264.989 888.524 265.512C888.193 266.035 887.724 266.44 887.116 266.728C886.518 267.016 885.809 267.16 884.988 267.16Z" fill="black"/>
<line x1="600.448" y1="173.782" x2="626.782" y2="215.552" stroke="black" stroke-width="5" stroke-linecap="round"/>
<line x1="726.141" y1="174.533" x2="693.533" y2="209.859" stroke="black" stroke-width="5" stroke-linecap="round"/>
<path d="M625.5 228H703.5L689 262H609L625.5 228Z" fill="#D9D9D9" stroke="black" stroke-width="2"/>
<path d="M627.564 249.12C626.692 249.12 625.996 248.9 625.476 248.46C624.956 248.02 624.68 247.42 624.648 246.66H626.448C626.472 246.948 626.58 247.172 626.772 247.332C626.972 247.484 627.236 247.56 627.564 247.56C627.924 247.56 628.2 247.468 628.392 247.284C628.584 247.092 628.68 246.824 628.68 246.48V246.36H626.796V244.992H628.68V244.92C628.68 244.568 628.584 244.3 628.392 244.116C628.2 243.932 627.924 243.84 627.564 243.84C627.244 243.84 626.984 243.92 626.784 244.08C626.584 244.24 626.472 244.46 626.448 244.74H624.648C624.68 243.98 624.956 243.38 625.476 242.94C625.996 242.5 626.692 242.28 627.564 242.28C628.156 242.28 628.668 242.392 629.1 242.616C629.54 242.832 629.88 243.136 630.12 243.528C630.36 243.92 630.48 244.384 630.48 244.92V246.48C630.48 247.008 630.36 247.472 630.12 247.872C629.88 248.264 629.54 248.572 629.1 248.796C628.668 249.012 628.156 249.12 627.564 249.12ZM633.895 249V244.08H631.735V242.4H637.855V244.08H635.695V249H633.895ZM641.991 249.12C641.407 249.12 640.899 249.012 640.467 248.796C640.035 248.572 639.699 248.264 639.459 247.872C639.227 247.472 639.111 247.008 639.111 246.48V244.92C639.111 244.392 639.227 243.932 639.459 243.54C639.699 243.14 640.035 242.832 640.467 242.616C640.899 242.392 641.407 242.28 641.991 242.28C642.583 242.28 643.091 242.392 643.515 242.616C643.947 242.832 644.279 243.14 644.511 243.54C644.751 243.932 644.871 244.392 644.871 244.92V246.48C644.871 247.008 644.751 247.472 644.511 247.872C644.279 248.264 643.947 248.572 643.515 248.796C643.091 249.012 642.583 249.12 641.991 249.12ZM641.991 247.56C642.343 247.56 642.611 247.468 642.795 247.284C642.979 247.092 643.071 246.824 643.071 246.48V244.92C643.071 244.568 642.979 244.3 642.795 244.116C642.611 243.932 642.343 243.84 641.991 243.84C641.647 243.84 641.379 243.932 641.187 244.116C641.003 244.3 640.911 244.568 640.911 244.92V246.48C640.911 246.824 641.003 247.092 641.187 247.284C641.379 247.468 641.647 247.56 641.991 247.56ZM656.417 249.12C655.833 249.12 655.321 249.012 654.881 248.796C654.441 248.572 654.101 248.264 653.861 247.872C653.621 247.472 653.501 247.008 653.501 246.48V244.92C653.501 244.384 653.621 243.92 653.861 243.528C654.101 243.136 654.441 242.832 654.881 242.616C655.321 242.392 655.833 242.28 656.417 242.28C657.289 242.28 657.985 242.5 658.505 242.94C659.025 243.38 659.301 243.98 659.333 244.74H657.533C657.509 244.46 657.397 244.24 657.197 244.08C657.005 243.92 656.745 243.84 656.417 243.84C656.057 243.84 655.781 243.932 655.589 244.116C655.397 244.3 655.301 244.568 655.301 244.92V246.48C655.301 246.824 655.397 247.092 655.589 247.284C655.781 247.468 656.057 247.56 656.417 247.56C656.745 247.56 657.005 247.484 657.197 247.332C657.397 247.172 657.509 246.948 657.533 246.66H659.333C659.301 247.42 659.025 248.02 658.505 248.46C657.985 248.9 657.289 249.12 656.417 249.12ZM660.757 249V242.4H663.745C664.553 242.4 665.193 242.564 665.665 242.892C666.145 243.212 666.385 243.648 666.385 244.2C666.385 244.64 666.205 244.996 665.845 245.268C665.485 245.532 665.009 245.664 664.417 245.664V245.544C665.065 245.544 665.581 245.688 665.965 245.976C666.357 246.264 666.553 246.644 666.553 247.116C666.553 247.7 666.313 248.16 665.833 248.496C665.361 248.832 664.717 249 663.901 249H660.757ZM662.521 247.728H663.817C664.113 247.728 664.349 247.66 664.525 247.524C664.709 247.38 664.801 247.196 664.801 246.972C664.801 246.732 664.709 246.54 664.525 246.396C664.349 246.252 664.113 246.18 663.817 246.18H662.521V247.728ZM662.521 245.124H663.757C664.029 245.124 664.245 245.06 664.405 244.932C664.565 244.796 664.645 244.62 664.645 244.404C664.645 244.18 664.565 244 664.405 243.864C664.245 243.728 664.029 243.66 663.757 243.66H662.521V245.124ZM667.964 249V242.4H669.548V245.4C669.548 245.6 669.536 245.852 669.512 246.156C669.488 246.452 669.456 246.752 669.416 247.056C669.384 247.36 669.348 247.628 669.308 247.86L671.396 242.4H673.58V249H671.996V246C671.996 245.792 672.008 245.556 672.032 245.292C672.056 245.02 672.084 244.748 672.116 244.476C672.148 244.204 672.18 243.972 672.212 243.78L670.148 249H667.964ZM677.067 249V244.08H674.907V242.4H681.027V244.08H678.867V249H677.067ZM686.123 249V246.9C686.027 246.924 685.875 246.952 685.667 246.984C685.467 247.008 685.239 247.02 684.983 247.02C684.111 247.02 683.423 246.804 682.919 246.372C682.415 245.932 682.163 245.328 682.163 244.56V242.4H683.963V244.44C683.963 244.736 684.071 244.972 684.287 245.148C684.503 245.316 684.795 245.4 685.163 245.4C685.387 245.4 685.583 245.388 685.751 245.364C685.927 245.332 686.051 245.304 686.123 245.28V242.4H687.923V249H686.123Z" fill="black"/>
<path d="M442.5 289H520.5L506 323H426L442.5 289Z" fill="#D9D9D9" stroke="black" stroke-width="2"/>
<path d="M444.564 310.12C443.692 310.12 442.996 309.9 442.476 309.46C441.956 309.02 441.68 308.42 441.648 307.66H443.448C443.472 307.948 443.58 308.172 443.772 308.332C443.972 308.484 444.236 308.56 444.564 308.56C444.924 308.56 445.2 308.468 445.392 308.284C445.584 308.092 445.68 307.824 445.68 307.48V307.36H443.796V305.992H445.68V305.92C445.68 305.568 445.584 305.3 445.392 305.116C445.2 304.932 444.924 304.84 444.564 304.84C444.244 304.84 443.984 304.92 443.784 305.08C443.584 305.24 443.472 305.46 443.448 305.74H441.648C441.68 304.98 441.956 304.38 442.476 303.94C442.996 303.5 443.692 303.28 444.564 303.28C445.156 303.28 445.668 303.392 446.1 303.616C446.54 303.832 446.88 304.136 447.12 304.528C447.36 304.92 447.48 305.384 447.48 305.92V307.48C447.48 308.008 447.36 308.472 447.12 308.872C446.88 309.264 446.54 309.572 446.1 309.796C445.668 310.012 445.156 310.12 444.564 310.12ZM450.895 310V305.08H448.735V303.4H454.855V305.08H452.695V310H450.895ZM458.991 310.12C458.407 310.12 457.899 310.012 457.467 309.796C457.035 309.572 456.699 309.264 456.459 308.872C456.227 308.472 456.111 308.008 456.111 307.48V305.92C456.111 305.392 456.227 304.932 456.459 304.54C456.699 304.14 457.035 303.832 457.467 303.616C457.899 303.392 458.407 303.28 458.991 303.28C459.583 303.28 460.091 303.392 460.515 303.616C460.947 303.832 461.279 304.14 461.511 304.54C461.751 304.932 461.871 305.392 461.871 305.92V307.48C461.871 308.008 461.751 308.472 461.511 308.872C461.279 309.264 460.947 309.572 460.515 309.796C460.091 310.012 459.583 310.12 458.991 310.12ZM458.991 308.56C459.343 308.56 459.611 308.468 459.795 308.284C459.979 308.092 460.071 307.824 460.071 307.48V305.92C460.071 305.568 459.979 305.3 459.795 305.116C459.611 304.932 459.343 304.84 458.991 304.84C458.647 304.84 458.379 304.932 458.187 305.116C458.003 305.3 457.911 305.568 457.911 305.92V307.48C457.911 307.824 458.003 308.092 458.187 308.284C458.379 308.468 458.647 308.56 458.991 308.56ZM473.417 310.12C472.833 310.12 472.321 310.012 471.881 309.796C471.441 309.572 471.101 309.264 470.861 308.872C470.621 308.472 470.501 308.008 470.501 307.48V305.92C470.501 305.384 470.621 304.92 470.861 304.528C471.101 304.136 471.441 303.832 471.881 303.616C472.321 303.392 472.833 303.28 473.417 303.28C474.289 303.28 474.985 303.5 475.505 303.94C476.025 304.38 476.301 304.98 476.333 305.74H474.533C474.509 305.46 474.397 305.24 474.197 305.08C474.005 304.92 473.745 304.84 473.417 304.84C473.057 304.84 472.781 304.932 472.589 305.116C472.397 305.3 472.301 305.568 472.301 305.92V307.48C472.301 307.824 472.397 308.092 472.589 308.284C472.781 308.468 473.057 308.56 473.417 308.56C473.745 308.56 474.005 308.484 474.197 308.332C474.397 308.172 474.509 307.948 474.533 307.66H476.333C476.301 308.42 476.025 309.02 475.505 309.46C474.985 309.9 474.289 310.12 473.417 310.12ZM477.757 310V303.4H480.745C481.553 303.4 482.193 303.564 482.665 303.892C483.145 304.212 483.385 304.648 483.385 305.2C483.385 305.64 483.205 305.996 482.845 306.268C482.485 306.532 482.009 306.664 481.417 306.664V306.544C482.065 306.544 482.581 306.688 482.965 306.976C483.357 307.264 483.553 307.644 483.553 308.116C483.553 308.7 483.313 309.16 482.833 309.496C482.361 309.832 481.717 310 480.901 310H477.757ZM479.521 308.728H480.817C481.113 308.728 481.349 308.66 481.525 308.524C481.709 308.38 481.801 308.196 481.801 307.972C481.801 307.732 481.709 307.54 481.525 307.396C481.349 307.252 481.113 307.18 480.817 307.18H479.521V308.728ZM479.521 306.124H480.757C481.029 306.124 481.245 306.06 481.405 305.932C481.565 305.796 481.645 305.62 481.645 305.404C481.645 305.18 481.565 305 481.405 304.864C481.245 304.728 481.029 304.66 480.757 304.66H479.521V306.124ZM484.964 310V303.4H486.548V306.4C486.548 306.6 486.536 306.852 486.512 307.156C486.488 307.452 486.456 307.752 486.416 308.056C486.384 308.36 486.348 308.628 486.308 308.86L488.396 303.4H490.58V310H488.996V307C488.996 306.792 489.008 306.556 489.032 306.292C489.056 306.02 489.084 305.748 489.116 305.476C489.148 305.204 489.18 304.972 489.212 304.78L487.148 310H484.964ZM494.067 310V305.08H491.907V303.4H498.027V305.08H495.867V310H494.067ZM503.123 310V307.9C503.027 307.924 502.875 307.952 502.667 307.984C502.467 308.008 502.239 308.02 501.983 308.02C501.111 308.02 500.423 307.804 499.919 307.372C499.415 306.932 499.163 306.328 499.163 305.56V303.4H500.963V305.44C500.963 305.736 501.071 305.972 501.287 306.148C501.503 306.316 501.795 306.4 502.163 306.4C502.387 306.4 502.583 306.388 502.751 306.364C502.927 306.332 503.051 306.304 503.123 306.28V303.4H504.923V310H503.123Z" fill="black"/>
<path d="M442.5 460H520.5L506 494H426L442.5 460Z" fill="#D9D9D9" stroke="black" stroke-width="2"/>
<path d="M444.564 481.12C443.692 481.12 442.996 480.9 442.476 480.46C441.956 480.02 441.68 479.42 441.648 478.66H443.448C443.472 478.948 443.58 479.172 443.772 479.332C443.972 479.484 444.236 479.56 444.564 479.56C444.924 479.56 445.2 479.468 445.392 479.284C445.584 479.092 445.68 478.824 445.68 478.48V478.36H443.796V476.992H445.68V476.92C445.68 476.568 445.584 476.3 445.392 476.116C445.2 475.932 444.924 475.84 444.564 475.84C444.244 475.84 443.984 475.92 443.784 476.08C443.584 476.24 443.472 476.46 443.448 476.74H441.648C441.68 475.98 441.956 475.38 442.476 474.94C442.996 474.5 443.692 474.28 444.564 474.28C445.156 474.28 445.668 474.392 446.1 474.616C446.54 474.832 446.88 475.136 447.12 475.528C447.36 475.92 447.48 476.384 447.48 476.92V478.48C447.48 479.008 447.36 479.472 447.12 479.872C446.88 480.264 446.54 480.572 446.1 480.796C445.668 481.012 445.156 481.12 444.564 481.12ZM450.895 481V476.08H448.735V474.4H454.855V476.08H452.695V481H450.895ZM458.991 481.12C458.407 481.12 457.899 481.012 457.467 480.796C457.035 480.572 456.699 480.264 456.459 479.872C456.227 479.472 456.111 479.008 456.111 478.48V476.92C456.111 476.392 456.227 475.932 456.459 475.54C456.699 475.14 457.035 474.832 457.467 474.616C457.899 474.392 458.407 474.28 458.991 474.28C459.583 474.28 460.091 474.392 460.515 474.616C460.947 474.832 461.279 475.14 461.511 475.54C461.751 475.932 461.871 476.392 461.871 476.92V478.48C461.871 479.008 461.751 479.472 461.511 479.872C461.279 480.264 460.947 480.572 460.515 480.796C460.091 481.012 459.583 481.12 458.991 481.12ZM458.991 479.56C459.343 479.56 459.611 479.468 459.795 479.284C459.979 479.092 460.071 478.824 460.071 478.48V476.92C460.071 476.568 459.979 476.3 459.795 476.116C459.611 475.932 459.343 475.84 458.991 475.84C458.647 475.84 458.379 475.932 458.187 476.116C458.003 476.3 457.911 476.568 457.911 476.92V478.48C457.911 478.824 458.003 479.092 458.187 479.284C458.379 479.468 458.647 479.56 458.991 479.56ZM473.417 481.12C472.833 481.12 472.321 481.012 471.881 480.796C471.441 480.572 471.101 480.264 470.861 479.872C470.621 479.472 470.501 479.008 470.501 478.48V476.92C470.501 476.384 470.621 475.92 470.861 475.528C471.101 475.136 471.441 474.832 471.881 474.616C472.321 474.392 472.833 474.28 473.417 474.28C474.289 474.28 474.985 474.5 475.505 474.94C476.025 475.38 476.301 475.98 476.333 476.74H474.533C474.509 476.46 474.397 476.24 474.197 476.08C474.005 475.92 473.745 475.84 473.417 475.84C473.057 475.84 472.781 475.932 472.589 476.116C472.397 476.3 472.301 476.568 472.301 476.92V478.48C472.301 478.824 472.397 479.092 472.589 479.284C472.781 479.468 473.057 479.56 473.417 479.56C473.745 479.56 474.005 479.484 474.197 479.332C474.397 479.172 474.509 478.948 474.533 478.66H476.333C476.301 479.42 476.025 480.02 475.505 480.46C474.985 480.9 474.289 481.12 473.417 481.12ZM477.757 481V474.4H480.745C481.553 474.4 482.193 474.564 482.665 474.892C483.145 475.212 483.385 475.648 483.385 476.2C483.385 476.64 483.205 476.996 482.845 477.268C482.485 477.532 482.009 477.664 481.417 477.664V477.544C482.065 477.544 482.581 477.688 482.965 477.976C483.357 478.264 483.553 478.644 483.553 479.116C483.553 479.7 483.313 480.16 482.833 480.496C482.361 480.832 481.717 481 480.901 481H477.757ZM479.521 479.728H480.817C481.113 479.728 481.349 479.66 481.525 479.524C481.709 479.38 481.801 479.196 481.801 478.972C481.801 478.732 481.709 478.54 481.525 478.396C481.349 478.252 481.113 478.18 480.817 478.18H479.521V479.728ZM479.521 477.124H480.757C481.029 477.124 481.245 477.06 481.405 476.932C481.565 476.796 481.645 476.62 481.645 476.404C481.645 476.18 481.565 476 481.405 475.864C481.245 475.728 481.029 475.66 480.757 475.66H479.521V477.124ZM484.964 481V474.4H486.548V477.4C486.548 477.6 486.536 477.852 486.512 478.156C486.488 478.452 486.456 478.752 486.416 479.056C486.384 479.36 486.348 479.628 486.308 479.86L488.396 474.4H490.58V481H488.996V478C488.996 477.792 489.008 477.556 489.032 477.292C489.056 477.02 489.084 476.748 489.116 476.476C489.148 476.204 489.18 475.972 489.212 475.78L487.148 481H484.964ZM494.067 481V476.08H491.907V474.4H498.027V476.08H495.867V481H494.067ZM503.123 481V478.9C503.027 478.924 502.875 478.952 502.667 478.984C502.467 479.008 502.239 479.02 501.983 479.02C501.111 479.02 500.423 478.804 499.919 478.372C499.415 477.932 499.163 477.328 499.163 476.56V474.4H500.963V476.44C500.963 476.736 501.071 476.972 501.287 477.148C501.503 477.316 501.795 477.4 502.163 477.4C502.387 477.4 502.583 477.388 502.751 477.364C502.927 477.332 503.051 477.304 503.123 477.28V474.4H504.923V481H503.123Z" fill="black"/>
<line x1="525.387" y1="314.986" x2="609.986" y2="360.613" stroke="black" stroke-width="5" stroke-linecap="round"/>
<line x1="537.969" y1="466.496" x2="605.996" y2="414.531" stroke="black" stroke-width="5" stroke-linecap="round"/>
<rect x="285.5" y="278.5" width="53" height="38" rx="6.5" fill="#D9D9D9" stroke="black" stroke-width="3"/>
<rect x="283.5" y="317.5" width="57" height="6" rx="2.5" fill="#D9D9D9" stroke="black"/>
<line x1="355.463" y1="300.464" x2="419.463" y2="299.522" stroke="black" stroke-width="5" stroke-linecap="round"/>
<rect x="282.5" y="454.5" width="53" height="38" rx="6.5" fill="#D9D9D9" stroke="black" stroke-width="3"/>
<rect x="280.5" y="493.5" width="57" height="6" rx="2.5" fill="#D9D9D9" stroke="black"/>
<line x1="348.464" y1="476.464" x2="413.464" y2="475.522" stroke="black" stroke-width="5" stroke-linecap="round"/>
<path d="M852 174H891C895.971 174 900 178.029 900 183V247H852V174Z" fill="#D9D9D9" stroke="black" stroke-width="2"/>
<circle cx="892.5" cy="182.5" r="2.5" fill="black"/>
<circle cx="882.5" cy="182.5" r="2.5" fill="black"/>
<circle cx="872.5" cy="182.5" r="2.5" fill="black"/>
<line x1="877.5" y1="274.5" x2="877.5" y2="333.5" stroke="black" stroke-width="5" stroke-linecap="round"/>
<rect x="1007.5" y="355.5" width="53" height="38" rx="6.5" fill="#D9D9D9" stroke="black" stroke-width="3"/>
<rect x="1005.5" y="394.5" width="57" height="6" rx="2.5" fill="#D9D9D9" stroke="black"/>
<line x1="925.536" y1="377.537" x2="988.537" y2="378.464" stroke="black" stroke-width="5" stroke-linecap="round"/>
<path d="M614.4 584L617.264 572.32H620.304L623.2 584H620.752L620.192 581.36H617.408L616.848 584H614.4ZM617.808 579.44H619.776L619.216 576.624C619.141 576.219 619.061 575.819 618.976 575.424C618.901 575.019 618.843 574.704 618.8 574.48C618.757 574.704 618.699 575.013 618.624 575.408C618.56 575.803 618.485 576.203 618.4 576.608L617.808 579.44ZM624.602 584V572.32H628.394C629.204 572.32 629.908 572.475 630.506 572.784C631.114 573.093 631.583 573.531 631.914 574.096C632.255 574.651 632.426 575.307 632.426 576.064V580.24C632.426 580.987 632.255 581.643 631.914 582.208C631.583 582.773 631.114 583.216 630.506 583.536C629.908 583.845 629.204 584 628.394 584H624.602ZM627.002 581.76H628.394C628.884 581.76 629.279 581.621 629.578 581.344C629.876 581.067 630.026 580.699 630.026 580.24V576.064C630.026 575.616 629.876 575.253 629.578 574.976C629.279 574.699 628.884 574.56 628.394 574.56H627.002V581.76ZM633.86 584V572.32H636.564L637.636 576C637.753 576.384 637.838 576.72 637.891 577.008C637.956 577.296 637.993 577.499 638.004 577.616C638.014 577.499 638.046 577.296 638.1 577.008C638.164 576.72 638.249 576.384 638.356 576L639.412 572.32H642.116V584H639.924V580.8C639.924 580.213 639.934 579.6 639.956 578.96C639.988 578.309 640.025 577.664 640.068 577.024C640.11 576.384 640.158 575.787 640.212 575.232C640.265 574.667 640.313 574.176 640.356 573.76L639.012 579.04H636.98L635.572 573.76C635.625 574.155 635.678 574.629 635.732 575.184C635.785 575.728 635.833 576.32 635.876 576.96C635.929 577.589 635.972 578.235 636.004 578.896C636.036 579.557 636.052 580.192 636.052 580.8V584H633.86ZM644.061 584V581.92H646.381V574.4H644.061V572.32H651.101V574.4H648.781V581.92H651.101V584H644.061ZM653.335 584V572.32H656.135L659.159 581.36C659.127 580.965 659.09 580.512 659.047 580C659.004 579.477 658.967 578.96 658.935 578.448C658.914 577.925 658.903 577.483 658.903 577.12V572.32H661.015V584H658.215L655.223 574.96C655.255 575.301 655.287 575.707 655.319 576.176C655.351 576.645 655.378 577.12 655.399 577.6C655.431 578.08 655.447 578.507 655.447 578.88V584H653.335ZM664.209 579.84V577.6H669.329V579.84H664.209ZM672.618 584V572.32H676.603C677.424 572.32 678.139 572.475 678.747 572.784C679.365 573.093 679.84 573.525 680.171 574.08C680.512 574.635 680.683 575.285 680.683 576.032C680.683 576.768 680.512 577.419 680.171 577.984C679.829 578.539 679.355 578.971 678.747 579.28C678.139 579.589 677.424 579.744 676.603 579.744H675.019V584H672.618ZM675.019 577.584H676.603C677.115 577.584 677.52 577.445 677.819 577.168C678.128 576.88 678.283 576.501 678.283 576.032C678.283 575.563 678.128 575.189 677.819 574.912C677.52 574.624 677.115 574.48 676.603 574.48H675.019V577.584ZM686.02 584.16C685.242 584.16 684.559 584.016 683.972 583.728C683.386 583.429 682.927 583.019 682.596 582.496C682.276 581.963 682.116 581.344 682.116 580.64V575.68C682.116 574.965 682.276 574.347 682.596 573.824C682.927 573.301 683.386 572.896 683.972 572.608C684.559 572.309 685.242 572.16 686.02 572.16C686.81 572.16 687.492 572.309 688.068 572.608C688.655 572.896 689.108 573.301 689.428 573.824C689.759 574.347 689.924 574.965 689.924 575.68H687.524C687.524 575.211 687.391 574.853 687.124 574.608C686.868 574.363 686.5 574.24 686.02 574.24C685.54 574.24 685.167 574.363 684.9 574.608C684.644 574.853 684.516 575.211 684.516 575.68V580.64C684.516 581.099 684.644 581.456 684.9 581.712C685.167 581.957 685.54 582.08 686.02 582.08C686.5 582.08 686.868 581.957 687.124 581.712C687.391 581.456 687.524 581.099 687.524 580.64H689.924C689.924 581.344 689.759 581.963 689.428 582.496C689.108 583.019 688.655 583.429 688.068 583.728C687.492 584.016 686.81 584.16 686.02 584.16Z" fill="black"/>
<rect x="626.5" y="520.5" width="53" height="38" rx="6.5" fill="#D9D9D9" stroke="black" stroke-width="3"/>
<rect x="624.5" y="559.5" width="57" height="6" rx="2.5" fill="#D9D9D9" stroke="black"/>
<line x1="653.001" y1="509.96" x2="654" y2="446.961" stroke="black" stroke-width="5" stroke-linecap="round"/>
<rect x="606" y="512" width="95" height="87" rx="11" stroke="black" stroke-width="2"/>
<rect x="990" y="343" width="95" height="87" rx="11" stroke="black" stroke-width="2"/>
<path d="M654 601C657.333 618.333 675.8 653.2 723 654H1153C1166.33 653.667 1193 646 1193 618C1193 590 1193 479 1193 427C1194.67 412.667 1189 384.6 1153 387C1117 389.4 1092 388 1084 387" stroke="black"/>
<path d="M783.8 677.16C783.021 677.16 782.344 677.016 781.768 676.728C781.192 676.429 780.744 676.019 780.424 675.496C780.115 674.963 779.96 674.344 779.96 673.64V668.68C779.96 667.976 780.115 667.363 780.424 666.84C780.744 666.307 781.192 665.896 781.768 665.608C782.344 665.309 783.021 665.16 783.8 665.16C784.589 665.16 785.267 665.309 785.832 665.608C786.408 665.896 786.851 666.307 787.16 666.84C787.48 667.363 787.64 667.976 787.64 668.68V673.64C787.64 674.344 787.48 674.963 787.16 675.496C786.851 676.019 786.408 676.429 785.832 676.728C785.267 677.016 784.589 677.16 783.8 677.16ZM783.8 675.08C784.28 675.08 784.637 674.957 784.872 674.712C785.117 674.456 785.24 674.099 785.24 673.64V668.68C785.24 668.211 785.123 667.853 784.888 667.608C784.653 667.363 784.291 667.24 783.8 667.24C783.309 667.24 782.947 667.363 782.712 667.608C782.477 667.853 782.36 668.211 782.36 668.68V673.64C782.36 674.099 782.477 674.456 782.712 674.712C782.957 674.957 783.32 675.08 783.8 675.08ZM788.946 679.24V674.968H789.442C789.623 674.787 789.81 674.472 790.002 674.024C790.204 673.565 790.311 673.011 790.322 672.36L790.402 668.2H796.882V674.968H797.842V679.24H795.602V677H791.186V679.24H788.946ZM791.826 674.968H794.642V670.264H792.61L792.562 672.344C792.551 672.963 792.46 673.507 792.29 673.976C792.13 674.435 791.975 674.765 791.826 674.968ZM799.243 677V668.2H801.644V671.416H804.332V668.2H806.732V677H804.332V673.656H801.644V677H799.243ZM811.445 677.16C810.56 677.16 809.856 676.92 809.333 676.44C808.821 675.96 808.565 675.309 808.565 674.488C808.565 673.603 808.869 672.925 809.477 672.456C810.096 671.976 810.981 671.736 812.133 671.736H813.957V671.08C813.957 670.739 813.835 670.467 813.589 670.264C813.355 670.061 813.035 669.96 812.629 669.96C812.256 669.96 811.947 670.045 811.701 670.216C811.456 670.387 811.307 670.621 811.253 670.92H808.933C809.029 670.035 809.413 669.336 810.085 668.824C810.768 668.301 811.643 668.04 812.709 668.04C813.829 668.04 814.715 668.317 815.365 668.872C816.027 669.416 816.357 670.152 816.357 671.08V677H814.037V675.56H813.653L814.053 675C814.053 675.661 813.813 676.189 813.333 676.584C812.864 676.968 812.235 677.16 811.445 677.16ZM812.341 675.4C812.811 675.4 813.195 675.277 813.493 675.032C813.803 674.776 813.957 674.445 813.957 674.04V673.096H812.181C811.819 673.096 811.525 673.203 811.301 673.416C811.077 673.619 810.965 673.891 810.965 674.232C810.965 674.595 811.088 674.883 811.333 675.096C811.579 675.299 811.915 675.4 812.341 675.4ZM828.025 677V668.2H830.137V672.2C830.137 672.467 830.121 672.803 830.089 673.208C830.057 673.603 830.014 674.003 829.961 674.408C829.918 674.813 829.87 675.171 829.817 675.48L832.601 668.2H835.513V677H833.401V673C833.401 672.723 833.417 672.408 833.449 672.056C833.481 671.693 833.518 671.331 833.561 670.968C833.603 670.605 833.646 670.296 833.689 670.04L830.937 677H828.025ZM849.756 677V670.44H846.876V668.2H855.036V670.44H852.156V677H849.756ZM859.414 677.16C858.529 677.16 857.825 676.92 857.302 676.44C856.79 675.96 856.534 675.309 856.534 674.488C856.534 673.603 856.838 672.925 857.446 672.456C858.065 671.976 858.95 671.736 860.102 671.736H861.926V671.08C861.926 670.739 861.803 670.467 861.558 670.264C861.323 670.061 861.003 669.96 860.598 669.96C860.225 669.96 859.915 670.045 859.67 670.216C859.425 670.387 859.275 670.621 859.222 670.92H856.902C856.998 670.035 857.382 669.336 858.054 668.824C858.737 668.301 859.611 668.04 860.678 668.04C861.798 668.04 862.683 668.317 863.334 668.872C863.995 669.416 864.326 670.152 864.326 671.08V677H862.006V675.56H861.622L862.022 675C862.022 675.661 861.782 676.189 861.302 676.584C860.833 676.968 860.203 677.16 859.414 677.16ZM860.31 675.4C860.779 675.4 861.163 675.277 861.462 675.032C861.771 674.776 861.926 674.445 861.926 674.04V673.096H860.15C859.787 673.096 859.494 673.203 859.27 673.416C859.046 673.619 858.934 673.891 858.934 674.232C858.934 674.595 859.057 674.883 859.302 675.096C859.547 675.299 859.883 675.4 860.31 675.4ZM865.392 677L867.072 672.488L865.52 668.2H867.6L868.896 672.12H869.328V668.2H870.96V672.12H871.392L872.816 668.2H874.768L873.216 672.44L874.896 677H872.88L871.408 672.92H870.96V677H869.328V672.92H868.864L867.52 677H865.392ZM879.754 677.16C878.975 677.16 878.292 677.016 877.706 676.728C877.13 676.429 876.682 676.019 876.362 675.496C876.052 674.963 875.898 674.344 875.898 673.64V671.56C875.898 670.856 876.052 670.243 876.362 669.72C876.682 669.187 877.13 668.776 877.706 668.488C878.292 668.189 878.975 668.04 879.754 668.04C880.532 668.04 881.204 668.189 881.77 668.488C882.346 668.776 882.788 669.187 883.098 669.72C883.418 670.243 883.578 670.856 883.578 671.56V673.16H878.186V673.64C878.186 674.195 878.319 674.616 878.586 674.904C878.852 675.181 879.252 675.32 879.786 675.32C880.159 675.32 880.458 675.256 880.682 675.128C880.916 675 881.071 674.824 881.146 674.6H883.498C883.306 675.368 882.868 675.987 882.186 676.456C881.514 676.925 880.703 677.16 879.754 677.16ZM881.29 671.928V671.528C881.29 670.984 881.162 670.568 880.906 670.28C880.66 669.992 880.276 669.848 879.754 669.848C879.231 669.848 878.836 669.997 878.57 670.296C878.314 670.595 878.186 671.016 878.186 671.56V671.8L881.45 671.768L881.29 671.928ZM894.797 677V668.2H897.501L898.541 671.48C898.658 671.853 898.749 672.195 898.813 672.504C898.888 672.803 898.93 673.027 898.941 673.176C898.962 673.027 899 672.803 899.053 672.504C899.117 672.195 899.208 671.853 899.325 671.48L900.349 668.2H903.053V677H900.861V675.4C900.861 675.048 900.866 674.653 900.877 674.216C900.898 673.768 900.92 673.309 900.941 672.84C900.973 672.36 901 671.901 901.021 671.464C901.053 671.016 901.085 670.621 901.117 670.28L899.949 674.52H897.917L896.685 670.28C896.728 670.717 896.77 671.24 896.813 671.848C896.866 672.456 896.909 673.075 896.941 673.704C896.973 674.323 896.989 674.888 896.989 675.4V677H894.797ZM907.383 677.16C906.497 677.16 905.793 676.92 905.271 676.44C904.759 675.96 904.503 675.309 904.503 674.488C904.503 673.603 904.807 672.925 905.415 672.456C906.033 671.976 906.919 671.736 908.071 671.736H909.895V671.08C909.895 670.739 909.772 670.467 909.527 670.264C909.292 670.061 908.972 669.96 908.567 669.96C908.193 669.96 907.884 670.045 907.639 670.216C907.393 670.387 907.244 670.621 907.191 670.92H904.871C904.967 670.035 905.351 669.336 906.023 668.824C906.705 668.301 907.58 668.04 908.647 668.04C909.767 668.04 910.652 668.317 911.303 668.872C911.964 669.416 912.295 670.152 912.295 671.08V677H909.975V675.56H909.591L909.991 675C909.991 675.661 909.751 676.189 909.271 676.584C908.801 676.968 908.172 677.16 907.383 677.16ZM908.279 675.4C908.748 675.4 909.132 675.277 909.431 675.032C909.74 674.776 909.895 674.445 909.895 674.04V673.096H908.119C907.756 673.096 907.463 673.203 907.239 673.416C907.015 673.619 906.903 673.891 906.903 674.232C906.903 674.595 907.025 674.883 907.271 675.096C907.516 675.299 907.852 675.4 908.279 675.4ZM913.953 677V668.2H915.921V675.4H917.281V668.2H918.945V675.4H920.305V668.2H922.273V677H913.953ZM923.962 677V668.2H926.074V672.2C926.074 672.467 926.058 672.803 926.026 673.208C925.994 673.603 925.952 674.003 925.898 674.408C925.856 674.813 925.808 675.171 925.754 675.48L928.538 668.2H931.45V677H929.338V673C929.338 672.723 929.354 672.408 929.386 672.056C929.418 671.693 929.456 671.331 929.498 670.968C929.541 670.605 929.584 670.296 929.626 670.04L926.874 677H923.962ZM933.556 677V668.2H935.956V671.416H938.644V668.2H941.044V677H938.644V673.656H935.956V677H933.556ZM945.758 677.16C944.872 677.16 944.168 676.92 943.646 676.44C943.134 675.96 942.878 675.309 942.878 674.488C942.878 673.603 943.182 672.925 943.79 672.456C944.408 671.976 945.294 671.736 946.446 671.736H948.27V671.08C948.27 670.739 948.147 670.467 947.902 670.264C947.667 670.061 947.347 669.96 946.942 669.96C946.568 669.96 946.259 670.045 946.014 670.216C945.768 670.387 945.619 670.621 945.566 670.92H943.246C943.342 670.035 943.726 669.336 944.398 668.824C945.08 668.301 945.955 668.04 947.022 668.04C948.142 668.04 949.027 668.317 949.678 668.872C950.339 669.416 950.67 670.152 950.67 671.08V677H948.35V675.56H947.966L948.366 675C948.366 675.661 948.126 676.189 947.646 676.584C947.176 676.968 946.547 677.16 945.758 677.16ZM946.654 675.4C947.123 675.4 947.507 675.277 947.806 675.032C948.115 674.776 948.27 674.445 948.27 674.04V673.096H946.494C946.131 673.096 945.838 673.203 945.614 673.416C945.39 673.619 945.278 673.891 945.278 674.232C945.278 674.595 945.4 674.883 945.646 675.096C945.891 675.299 946.227 675.4 946.654 675.4Z" fill="black"/>
</svg>
